<svg width="140" height="24" viewBox="0 0 140 24" fill="none" xmlns="http://www.w3.org/2000/svg">
<path d="M120.833 23.4975C119.083 23.4975 117.315 22.8467 117.315 21.3963C117.315 20.2317 124.308 11.2266 124.805 10.5639C124.486 10.074 122.051 5.98693 121.354 4.97117C121.253 4.82469 121.174 4.77186 121.052 4.69021C120.884 4.57735 120.629 4.40685 120.461 4.03465C120.37 3.82573 120.276 3.4103 120.615 2.89641C121.335 1.799 123.945 0.499878 125.429 0.499878C126.159 0.499878 126.534 0.797644 126.721 1.04498C127.398 1.9743 128.33 3.42951 129.151 4.71422C129.262 4.88472 129.37 5.05521 129.473 5.2185C129.797 4.89672 130.126 4.56534 130.458 4.23155C131.478 3.20378 132.532 2.13999 133.541 1.30192C134.23 0.658366 135.301 0.559911 135.877 0.559911C136.891 0.559911 138.221 0.86248 138.644 1.71736C138.853 2.14239 138.793 2.62266 138.476 3.03569C137.434 4.23876 133.005 9.45926 132.122 10.463C133.579 13.0325 136.651 14.7998 137.434 14.7998C138.125 14.7998 138.764 15.1336 139.059 15.6499C139.54 16.4856 138.889 17.2756 138.889 17.2756C137.919 18.6204 136.591 20.4646 134.221 20.4646C131.85 20.4646 128.361 15.016 128.162 14.7158C126.911 16.7569 124.673 20.3733 123.609 22.4025C123.088 23.3918 121.489 23.4999 120.826 23.4999L120.833 23.4975Z" fill="#1D1D1B"/>
<path d="M50.4361 13.1548H63.9676C64.6664 13.1548 65.2956 13.736 65.2956 14.4828C65.2956 15.2296 64.6664 15.8347 63.9676 15.8347H50.4361V13.1572V13.1548ZM50.4601 6.7961H63.5042C64.2029 6.7961 64.8561 7.37723 64.8561 8.12404C64.8561 8.87086 64.2029 9.47599 63.5042 9.47599H50.4601V6.7985V6.7961ZM46.337 3.3718L46.361 19.5832L64.1333 19.6769C67.3943 19.7009 69.4907 17.6045 69.4907 14.9943C69.4907 12.384 67.6272 11.1281 66.7412 10.7559C67.3943 10.3597 68.6742 9.52162 68.6742 7.3316C68.6742 5.14158 66.8804 3.3718 63.9916 3.3718H46.337Z" fill="#1D1D1B"/>
<path d="M75.6596 13.1548H89.1911C89.8899 13.1548 90.5191 13.736 90.5191 14.4828C90.5191 15.2296 89.8899 15.8347 89.1911 15.8347H75.6596V13.1572V13.1548ZM75.6836 6.7961H88.7277C89.4265 6.7961 90.0796 7.37723 90.0796 8.12404C90.0796 8.87086 89.4265 9.47599 88.7277 9.47599H75.6836V6.7985V6.7961ZM71.5605 3.3718L71.5846 19.5832L89.3568 19.6769C92.6178 19.7009 94.7142 17.6045 94.7142 14.9943C94.7142 12.384 92.8508 11.1281 91.9647 10.7559C92.6178 10.3597 93.8977 9.52162 93.8977 7.3316C93.8977 5.14158 92.1039 3.3718 89.2151 3.3718H71.5605Z" fill="#1D1D1B"/>
<path d="M39.366 3.39581V10.499C39.366 13.736 37.9228 15.7867 33.0073 15.7867C28.7906 15.7867 26.3916 13.7144 26.3916 10.475V3.3718H22.1293V10.7079C22.1293 15.645 26.2283 20.0011 33.0073 20.0491C40.4851 20.0035 43.698 15.669 43.698 10.7319V3.39581H39.366Z" fill="#1D1D1B"/>
<path d="M19.266 4.15436L18.4231 7.9941C15.3326 7.08159 12.4294 6.82465 9.73752 6.82465C7.5379 6.82465 4.35374 7.22327 4.35374 8.25345C4.35374 9.40128 8.35676 9.25961 11.0487 9.37727C16.4324 9.58859 20.6708 10.3378 20.6708 14.5041C20.6708 17.0567 18.9851 20.0512 10.2298 20.0512C7.95814 20.0512 4.0968 19.7943 0.00012207 18.4351L1.2176 14.665C4.75236 15.7888 7.77324 16.1875 10.8397 16.1875C13.462 16.1875 16.4348 15.7888 16.4348 14.5954C16.4348 13.8942 14.0935 13.5412 10.8638 13.4019C5.33828 13.1426 0.211439 13.0729 0.117787 8.41433C0.072162 5.90974 1.70987 2.91287 10.2778 2.91287C13.7429 2.91287 16.0842 3.23945 19.2684 4.15436H19.266Z" fill="#1D1D1B"/>
<path d="M119.206 3.3718H113.195L106.488 10.3237L99.7791 3.3718H93.771L104.322 14.1706V19.7009L108.63 19.6769V14.1946L119.206 3.3718Z" fill="#1D1D1B"/>
</svg>
